name motion_L1.mot
datacolumns 11
datarows 47
range 0.00000000 1.15000000
endheader
                time	         pelvis_tilt	           pelvis_tx	           pelvis_ty	       ankle_angle_r	        knee_angle_r	       hip_flexion_r	       hip_flexion_l	        knee_angle_l	       ankle_ankle_l	    lumbar_extension	
          0.00000000	          0.00000000	          0.00000000	         -0.94896823	          0.00000000	          0.00000000	          0.00000000	          0.00000000	          0.00000000	          0.00000000	          0.00000000	
          0.01127017	         -0.03497457	         -0.00014417	         -0.94962152	          0.01330804	          0.20263961	          0.01735896	          0.12026955	         -0.37515804	         -0.22004099	          0.20844264	
          0.05000000	         -0.23537858	         -0.00301161	         -0.96008233	         -0.07790944	          3.15039582	         -0.16608575	          1.87963604	         -5.63135106	         -3.75000004	          3.58544713	
          0.08872983	          0.68535394	         -0.01003233	         -0.97847534	         -1.31558767	          7.28202423	         -2.12204784	          4.38390304	        -12.21468048	         -9.97995912	          9.66245164	
          0.10000000	          1.39780372	         -0.01294535	         -0.98441677	         -2.06658679	          8.27391199	         -3.28636712	          5.00077292	        -13.47459611	        -12.00000012	         11.67089430	
          0.11127017	          2.36788322	         -0.01626802	         -0.99036065	         -3.03454401	          9.04907281	         -4.77860766	          5.49709722	        -14.19792757	        -14.02863012	         13.70370449	
          0.15000000	          7.04762251	         -0.03022827	         -1.00996667	         -7.38763569	         10.00000057	        -11.37316659	          6.30778373	        -13.51612544	        -21.00000021	         20.18768614	
          0.18872983	         12.16002560	         -0.04664295	         -1.02671562	        -11.68714468	          8.38044465	        -17.54531711	          5.92709030	        -10.69537401	        -27.97137030	         24.33972760	
          0.20000000	         13.41854762	         -0.05160191	         -1.03075479	        -12.61938010	          7.44194968	        -18.75595204	          5.62916130	         -9.99273927	        -30.00000030	         24.81791100	
          0.21127017	         14.48856967	         -0.05656935	         -1.03434563	        -13.32378007	          6.30079796	        -19.56497796	          5.25997980	         -9.48272883	        -32.02863030	         24.89119504	
          0.25000000	         16.85316707	         -0.07402304	         -1.04412031	        -14.18271866	          1.10511714	        -19.57640278	          3.66387625	         -8.73773231	        -39.00000039	         22.50065789	
          0.28872983	         17.65918103	         -0.09300715	         -1.05218772	        -13.22129998	         -5.40395223	        -16.29445463	          2.07383231	         -8.13508100	        -45.97137048	         17.27144263	
          0.30000000	         17.69014745	         -0.09899487	         -1.05464038	        -12.71212842	         -7.42069632	        -14.90789857	          1.70869054	         -7.71996737	        -48.00000048	         15.45227460	
          0.31127017	         17.65555537	         -0.10525280	         -1.05724147	        -12.13126454	         -9.45210433	        -13.38240272	          1.41450974	         -7.13480743	        -50.02863048	         13.56726519	
          0.35000000	         17.13230648	         -0.12972379	         -1.06595179	         -9.60700246	        -16.09957201	         -7.32593066	          0.94529737	         -4.77479735	        -57.00000057	          6.76276715	
          0.38872983	         16.17017092	         -0.16093266	         -1.07071926	         -6.24930630	        -21.19730850	         -0.51272259	          1.26533665	         -4.35779126	        -63.97137066	         -0.24197735	
          0.40000000	         15.84298771	         -0.17168251	         -1.07069178	         -5.11281970	        -22.19556239	          1.51726392	          1.49732362	         -5.06796733	        -66.00000066	         -2.26048439	
          0.41127017	         15.50530404	         -0.18327594	         -1.06986917	         -3.90562687	        -22.93285607	          3.54213015	          1.78365445	         -6.26071258	        -68.02043054	         -4.25467902	
          0.45000000	         14.33437391	         -0.22795958	         -1.06333360	          0.63425538	        -24.38376466	         10.46386508	          2.75845224	        -12.32131557	        -74.28395810	        -10.97514642	
          0.48872983	         13.30007498	         -0.27600565	         -1.05722906	          5.41418040	        -26.50158337	         17.38560001	          2.67789558	        -16.92751674	        -77.96973214	        -17.65159581	
          0.50000000	         13.05347877	         -0.28984071	         -1.05669379	          6.78140173	        -27.68348378	         19.41046624	          2.26065678	        -17.15066079	        -78.27165967	        -19.61644509	
          0.51127017	         12.83802851	         -0.30340938	         -1.05699650	          8.11965861	        -29.22662091	         21.44020905	          1.61625856	        -16.65709584	        -78.16456997	        -21.59927231	
          0.55000000	         12.22955681	         -0.34928939	         -1.06095536	         12.57090881	        -36.00780489	         28.23238084	         -1.94762346	        -11.23462258	        -76.07163653	        -28.51742438	
          0.58872983	         11.54930107	         -0.39759643	         -1.06023838	         17.01120830	        -41.69014891	         34.19120871	         -6.55218937	         -4.78642469	        -74.90267591	        -35.49943807	
          0.60000000	         11.28599478	         -0.41278313	         -1.05742387	         18.34216472	        -42.50072607	         35.66538892	         -7.89037685	         -3.60904332	        -75.41156807	        -37.52483971	
          0.61127017	         10.97618428	         -0.42864571	         -1.05300364	         19.70333829	        -42.76283448	         37.00035522	         -9.17103326	         -2.97983877	        -76.46848313	        -39.54256196	
          0.65000000	          9.36664399	         -0.48666569	         -1.02951308	         24.70588735	        -40.20692565	         41.03853819	        -13.01376863	         -3.76208565	        -82.49326322	        -46.44032164	
          0.68872983	          6.47057681	         -0.54569584	         -1.00382936	         30.42327946	        -34.42887556	         45.54579699	        -15.80235413	         -5.57563800	        -87.45060885	        -53.34737301	
          0.70000000	          5.30308171	         -0.56223187	         -0.99794704	         32.26101506	        -32.54288979	         47.19348051	        -16.38024396	         -5.63397043	        -87.79590094	        -55.37128972	
          0.71127017	          3.97657428	         -0.57823874	         -0.99329208	         34.17619528	        -30.68284328	         49.04631406	        -16.84863894	         -5.30947350	        -87.41710868	        -57.39695047	
          0.75000000	         -0.99348523	         -0.62864950	         -0.98284581	         40.43630852	        -24.94728256	         55.79264339	        -18.05645715	         -2.35197522	        -82.21033349	        -63.76947439	
          0.78872983	         -4.57814816	         -0.67099649	         -0.97051472	         43.92441888	        -21.14611959	         60.06526066	        -19.73044458	          0.44378317	        -75.42674033	        -67.73623928	
          0.80000000	         -4.98105787	         -0.68162750	         -0.96460322	         43.99159716	        -20.57567159	         60.26895282	        -20.50961905	          0.66045351	        -73.99673610	        -68.15806066	
          0.81127017	         -5.00000057	         -0.69145535	         -0.95714455	         43.52485754	        -20.28675942	         59.85852703	        -21.47231021	          0.46536005	        -73.04145438	        -68.17717595	
          0.85000000	         -2.96202447	         -0.71978378	         -0.92356122	         38.82020265	        -20.82621157	         54.92582922	        -25.77675356	         -2.15485881	        -72.95920917	        -65.62490027	
          0.88872983	          0.09347763	         -0.74144691	         -0.88821469	         31.93727097	        -22.12991392	         47.71041131	        -30.51901219	         -4.55227324	        -76.34889304	        -60.28461504	
          0.90000000	          0.75288559	         -0.74683121	         -0.87958055	         30.01834682	        -22.35050188	         45.77817212	        -31.77358020	         -4.59883043	        -77.70823070	        -58.44505730	
          0.91127017	          1.19490618	         -0.75190723	         -0.87223490	         28.27442824	        -22.41319537	         44.08253131	        -32.91118168	         -4.20016261	        -79.15050820	        -56.54555302	
          0.95000000	          1.35136820	         -0.76799859	         -0.85600836	         23.55466693	        -21.29467249	         39.63303375	        -35.75250411	         -0.84541136	        -84.20600014	        -49.72421346	
          0.98872983	          0.35181658	         -0.78428053	         -0.85069127	         20.39105044	        -17.95056254	         35.94355780	        -36.61535624	          1.77377437	        -88.24836540	        -42.72283726	
          1.00000000	          0.02316141	         -0.78948362	         -0.85061860	         19.68456173	        -16.52953132	         34.75459808	        -36.43397752	          1.68206518	        -89.01522512	        -40.70330856	
          1.01127017	         -0.27188417	         -0.79500769	         -0.85105952	         19.04939778	        -14.90548893	         33.44276079	        -36.04307722	          1.02077447	        -89.54246987	        -38.70563856	
          1.05000000	         -0.99418506	         -0.81577570	         -0.85721373	         17.16051024	         -8.32388362	         28.09784110	        -33.28738723	         -4.42090806	        -90.00000090	        -31.95984886	
          1.08872983	         -1.27391719	         -0.83744039	         -0.87265276	         15.15167798	         -1.55964433	         21.84253614	        -28.83310587	        -11.48875245	        -89.64434488	        -25.25363467	
          1.10000000	         -1.27391694	         -0.84356225	         -0.87928356	         14.43655089	          0.18615405	         19.92377534	        -27.30981133	        -13.23415106	        -89.62946492	        -23.28234834	
          1.11127017	         -1.23818138	         -0.84950471	         -0.88699171	         13.63306002	          1.75888358	         17.98151293	        -25.71091337	        -14.66378011	        -89.71221344	        -21.29489849	
          1.15000000	         -0.87885241	         -0.86863397	         -0.92193407	         10.25263602	          5.77821335	         11.17448442	        -19.72019820	        -16.95243577	        -90.00000090	        -14.37137541	
